# xmcd
#
# Track frame offsets:
#	150
#	11220
#	21207
#	30988
#	41919
#	54339
#	68275
#	80569
#	92607
#	105307
#	118505
#	132108
#	144218
#	155780
#	170330
#	184354
#	198827
#	209629
#	223646
#	234189
#	245739
#	257912
#	269981
#	280798
#	295637
#
# Disc length: 4096 seconds
#
# Revision: 1
# Processed by: cddbd v1.5.2PL0 Copyright (c) Steve Scherf et al.
# Submitted via: audiograbber 1.83.01
#
DISCID=680ffe19
DTITLE=Various Artist - The legendary music box [CD 3)
DYEAR=1950
DGENRE=Country
TTITLE0=Pérez Prado - 01 - Cherry Pink and Apple Blossom White
TTITLE1=Bill Haley and his Comets - 02 - Rock around the Clock tonight
TTITLE2=Les Paul and Mary Ford - 03 - How high the Moon
TTITLE3=Alma Cogan - 04 - Mambo Italiano
TTITLE4=Doris Day - 05 - A Guy is a Guy
TTITLE5=Patty Page - 06 - Changing Partners
TTITLE6=Jo Stafford - 07 - Jambalaya
TTITLE7=Frankie Laine - 08 - Hawk Eye
TTITLE8=Clyde McPatter and The Drifters - 09 - What´cha gonna do
TTITLE9=Al Hibbler - 10 - Unchained Melody
TTITLE10=Kai Starr - 11 - The Rock and Roll Waltz
TTITLE11=Bill Haley and his Comets - 12 - Crazy Man Crazy
TTITLE12=Fats Domino - 13 - Ain´t  that a Shame
TTITLE13=Frankie Laine - 14 - Jezebel
TTITLE14=Patti Page - 15 - Tennessee Waltz
TTITLE15=Perry Como - 16 - If
TTITLE16=Rosemary Clooney - 17 - This ole House
TTITLE17=The four Aces - 18 - Three Coins in the Fountain
TTITLE18=Dean Martin - 19 - Memories are made of This
TTITLE19=Bill Haley and his Comets - 20 - Shake, Rattle and Roll
TTITLE20=The Platters - 21 - The great Pretender
TTITLE21=Eddie Fisher - 22 - Anytime
TTITLE22=The Chordettes - 23 - Mister Sandman (Bring me a Dream)
TTITLE23=Tony Martin - 24 - There´s no Tomorrow
TTITLE24=Frankie Lane - 25 - High Noon
EXTD=Cd 3 off a Set of 10 from 1950 - 1955
EXTT0=
EXTT1=
EXTT2=
EXTT3=
EXTT4=
EXTT5=
EXTT6=
EXTT7=
EXTT8=
EXTT9=
EXTT10=
EXTT11=
EXTT12=
EXTT13=
EXTT14=
EXTT15=
EXTT16=
EXTT17=
EXTT18=
EXTT19=
EXTT20=
EXTT21=
EXTT22=
EXTT23=
EXTT24=
PLAYORDER=
